# xmcd
#
# Track frame offsets:
#	150
#	20743
#	36507
#	55843
#	76494
#	89768
#	106361
#	118001
#	139306
#	152016
#	169446
#	185431
#
# Disc length: 2739 seconds
#
# Revision: 0
# Processed by: cddbd v1.5.2PL0 Copyright (c) Steve Scherf et al.
# Submitted via: dBpowerAMP V4.0
#
DISCID=ac0ab10c
DTITLE=Various Artist - Country Dans 2009
DYEAR=1900
DGENRE=
TTITLE0=Achy Breaky Heart - remix - Micky Model
TTITLE1=That Don't Impres Me Much - remix - 
TTITLE2=From A Distance - remix - 
TTITLE3=Nine To Five - remix - 
TTITLE4=Jolene - Remix - 
TTITLE5=Desperado - remix - 
TTITLE6=Your Cheatin Heart - remix - 
TTITLE7=Sylvia's Mother - 
TTITLE8=Walk On By - 
TTITLE9=Crazy - Remix - 
TTITLE10=I will Love You All Of My Life - Remix - 
TTITLE11=Country Megamix - Remix - 
EXTD=
EXTT0=
EXTT1=
EXTT2=
EXTT3=
EXTT4=
EXTT5=
EXTT6=
EXTT7=
EXTT8=
EXTT9=
EXTT10=
EXTT11=
PLAYORDER=
